<?xml version="1.0" encoding="utf-8"?>
<!-- Generator: Adobe Illustrator 25.4.1, SVG Export Plug-In . SVG Version: 6.00 Build 0)  -->
<svg version="1.1" id="Layer_1" xmlns="http://www.w3.org/2000/svg" xmlns:xlink="http://www.w3.org/1999/xlink" x="0px" y="0px"
	 viewBox="0 0 530 172" style="enable-background:new 0 0 530 172;" xml:space="preserve">
<style type="text/css">
	.st0{fill:#0C9E8F;}
	.st1{fill:#009245;}
	.st2{fill:#122349;}
	.st3{fill:#00BCD4;}
	.st4{fill:#0F213F;}
</style>
<image style="display:none;overflow:visible;opacity:0.39;" width="1024" height="1024" xlink:href="a-clean-minimalistic-logo-design-featuri_VszEHZMrShCSfgnmc55EHQ_E8CIPL6cTZuvzbcTH5yElA.jpeg"  transform="matrix(0.5176 0 0 0.5176 0 -154)">
</image>
<image style="overflow:visible;" width="1024" height="1024" xlink:href="a-clean-minimalistic-logo-design-featuri_VszEHZMrShCSfgnmc55EHQ_E8CIPL6cTZuvzbcTH5yElA.jpeg"  transform="matrix(0.2807 0 0 0.2807 738 -223)">
</image>
<g>
	<path d="M733.5,176h-67c-13.5,0-24.5-11-24.5-24.5v-5.6c0-1,0.8-1.9,1.9-1.9h112.2c1,0,1.9,0.8,1.9,1.9v5.6
		C758,165,747,176,733.5,176z"/>
	<path d="M859.2,284.6l-0.4,0.2c-14.8,7.4-32.8,1.5-40.2-13.3l-51.3-102c-4.2-8.4-0.8-18.6,7.5-22.8v0c8.4-4.2,18.6-0.8,22.8,7.5
		l63.1,125.5C861.7,281.5,861,283.7,859.2,284.6z"/>
	<path d="M714.1,283.5h-29.3c-0.8,0-1.4-0.6-1.4-1.4v-84.6c0-8.8,7.2-16,16-16l0,0c8.8,0,16,7.2,16,16v84.6
		C715.5,282.9,714.9,283.5,714.1,283.5z"/>
	<path d="M726.5,248.7L726.5,248.7C726.4,248.6,726.4,248.6,726.5,248.7c-1.2-0.8-5.3-3.6-7-9.2c-1.9-6.1,0.4-11.2,0.9-12.3
		c0,0,0,0,0,0l23.5-41.9c4.3-7.6,13.9-10.3,21.5-6l0,0c7.6,4.3,10.3,13.9,6,21.5L748,242.6C743.7,250.2,734.1,252.9,726.5,248.7z"/>
	<path class="st0" d="M719.2,232.5L719.2,232.5l62.2,0c8.6,0,15.5,7,15.5,15.5v0c0,8.6-7,15.5-15.5,15.5h-31.2
		C733.1,263.6,719.2,249.7,719.2,232.5z"/>
	<path class="st1" d="M716,240"/>
	<path class="st0" d="M720.7,232.5h-1.8c0,0.7,0.1,3.1,0.1,3.5c0.3,2.7,1.1,4.9,1.8,6.5c0.6-3.3,1.2-6.7,1.8-10H720.7z"/>
</g>
<g>
	<g>
		<path class="st2" d="M241.5-325h-67c-13.5,0-24.5-11-24.5-24.5v-5.6c0-1,0.8-1.9,1.9-1.9h112.2c1,0,1.9,0.8,1.9,1.9v5.6
			C266-336,255-325,241.5-325z"/>
		<path class="st2" d="M367.2-216.4l-0.4,0.2c-14.8,7.4-32.8,1.5-40.2-13.3l-51.3-102c-4.2-8.4-0.8-18.6,7.5-22.8h0
			c8.4-4.2,18.6-0.8,22.8,7.5l63.1,125.5C369.7-219.5,369-217.3,367.2-216.4z"/>
		<path class="st2" d="M222.1-217.5h-29.3c-0.8,0-1.4-0.6-1.4-1.4v-84.6c0-8.8,7.2-16,16-16h0c8.8,0,16,7.2,16,16v84.6
			C223.5-218.1,222.9-217.5,222.1-217.5z"/>
		<path class="st2" d="M234.5-252.3L234.5-252.3C234.4-252.4,234.4-252.4,234.5-252.3c-1.2-0.8-5.3-3.6-7-9.2
			c-1.9-6.1,0.4-11.2,0.9-12.3c0,0,0,0,0,0l23.5-41.9c4.3-7.6,13.9-10.3,21.5-6v0c7.6,4.3,10.3,13.9,6,21.5L256-258.4
			C251.7-250.8,242.1-248.1,234.5-252.3z"/>
		<path class="st2" d="M224-261"/>
		<path class="st2" d="M228.7-268.5h-1.8c0,0.7,0.1,3.1,0.1,3.5c0.3,2.7,1.1,4.9,1.8,6.5c0.6-3.3,1.2-6.7,1.8-10H228.7z"/>
	</g>
	<path class="st3" d="M227.2-268.5L227.2-268.5l62.2,0c8.6,0,15.5,7,15.5,15.5v0c0,8.6-7,15.5-15.5,15.5h-31.2
		C241.1-237.4,227.2-251.3,227.2-268.5z"/>
</g>
<path class="st4" d="M79.8,62.8H37.1c-9.7,0-17.5-7.8-17.5-17.5v-2.6c0-0.7,0.6-1.3,1.3-1.3h75c0.7,0,1.3,0.6,1.3,1.3v2.6
	C97.3,55,89.5,62.8,79.8,62.8z"/>
<path class="st4" d="M165.4,135.4l-2.7,1.3c-8.7,4.4-19.3,0.9-23.7-7.8L103,57.2c-2.5-4.9-0.5-11,4.5-13.5l2.4-1.2
	c4.9-2.5,11-0.5,13.5,4.5l43,85.6C166.9,133.6,166.5,134.9,165.4,135.4z"/>
<path class="st4" d="M68,134.8H48.2c-0.4,0-0.8-0.4-0.8-0.8V75.9c0-5.2,4.2-9.4,9.4-9.4h2.6c5.2,0,9.4,4.2,9.4,9.4V134
	C68.9,134.5,68.5,134.8,68,134.8z"/>
<path class="st4" d="M76.2,111.5L76.2,111.5C76.2,111.5,76.2,111.5,76.2,111.5c-0.8-0.5-3.5-2.4-4.7-6.1c-1.3-4.1,0.3-7.5,0.6-8.2
	c0,0,0,0,0,0L87.9,69c2.9-5.1,9.3-6.9,14.4-4.1l0,0c5.1,2.9,6.9,9.3,4.1,14.4l-15.7,28C87.8,112.5,81.3,114.3,76.2,111.5z"/>
<path class="st2" d="M69.2,105.7"/>
<path class="st2" d="M72.3,100.7h-1.2c0,0.5,0,2.1,0.1,2.3c0.2,1.8,0.7,3.3,1.2,4.4c0.4-2.2,0.8-4.5,1.2-6.7H72.3z"/>
<path class="st3" d="M71.3,103.1v-2.5h43c5.1,0,9.2,4.1,9.2,9.2v2.5c0,5.1-4.1,9.2-9.2,9.2H89.6C79.5,121.5,71.3,113.3,71.3,103.1z"
	/>
<g>
	<g>
		<path class="st4" d="M188.5,66.6h-14.7V58h39.9v8.6h-14.7v39.9h-10.5V66.6z"/>
		<path class="st4" d="M229.3,95.3l-3.8,11.2h-10.3L231.7,58h13.2l17.2,48.5h-11l-4-11.2H229.3z M244.8,86.7
			c-3.4-10.2-5.6-16.8-6.8-21.2h-0.1c-1.2,4.8-3.6,12.4-6.4,21.2H244.8z"/>
		<path class="st4" d="M276.5,106.5L264.1,58h11.2c4.5,22.3,6.6,32.2,7.2,37.5h0.1c1.8-8.9,6.5-25.8,9.4-37.5h9.4
			c2.5,9.3,7.4,28.1,9,37h0.1c1.6-10.7,6.4-29.5,8.1-37h10.2l-13.1,48.5h-10.9c-2.6-10.7-6.8-26.4-8.5-34.7h-0.1
			c-1.8,8.6-6.1,25-8.7,34.7H276.5z"/>
		<path class="st4" d="M335.7,58h10.5v18.9h19.5V58h10.5v48.5h-10.5v-21h-19.5v21h-10.5V58z"/>
		<path class="st4" d="M421.2,85.6h-23.2v12.3h25.6l-1.2,8.6h-34.5V58h34.4v8.6h-24.2V77h23.2V85.6z"/>
		<path class="st4" d="M464.7,85.6h-23.2v12.3h25.6l-1.2,8.6h-34.5V58h34.4v8.6h-24.2V77h23.2V85.6z"/>
		<path class="st4" d="M474.8,58H494c14.1,0,23.4,9.3,23.4,23.7c0,14.2-9,24.9-23.8,24.9h-18.8V58z M485.3,98.1h7.9
			c9.3,0,13.4-6.9,13.4-16.4c0-7.9-3.9-15.2-13.4-15.2h-7.9V98.1z"/>
	</g>
</g>
</svg>
