<?xml version="1.0" encoding="UTF-8"?><svg id="A_Man_Who_Is_Working_While_Relaxing" xmlns="http://www.w3.org/2000/svg" viewBox="0 0 1500 1500"><defs><style>.cls-1{fill:#fff0e1;}.cls-2{fill:#ffcc94;}.cls-3{fill:#5c7de5;}.cls-4{fill:#114f60;}.cls-5{fill:#b3c9ff;}.cls-6{fill:#d8664c;}.cls-7{fill:#eab28c;}.cls-8{fill:#fca55e;}.cls-9{fill:#fcf3f0;}.cls-10{fill:#232323;}.cls-11{fill:#fff1e6;}.cls-12{fill:#fee3c8;}.cls-13{fill:#d3ba9f;}.cls-14{fill:#c4a88d;}.cls-15{fill:#f2e7e4;}.cls-16{fill:#e5d8d6;}.cls-17{fill:#f9f9f9;}.cls-18{fill:#738df9;}.cls-19{fill:#efaf84;}.cls-20{fill:#104956;}.cls-21{fill:#314a9b;}.cls-22{fill:#f47c69;}.cls-23{fill:#edb894;}.cls-24{fill:#2242c6;}.cls-25{fill:#000930;}.cls-26{fill:#434344;}.cls-27{fill:#3750dd;}.cls-28{fill:#f47676;}.cls-29{fill:#f9d0af;}.cls-30{fill:#4152f0;}.cls-31{fill:#fcbe86;}.cls-32{fill:#454545;}.cls-33{fill:#ffbd6e;}.cls-34{fill:#f2d4b8;}.cls-35{fill:#d88d6c;}.cls-36{fill:#e5a57a;}.cls-37{fill:#f4c198;}.cls-38{fill:#efaf7b;}</style></defs><g id="BG"><path class="cls-1" d="M1361.49,843.01c56.21-26.04,88.01-54.71,85.97-82.92-2.21-30.5-43.64-55.82-111.95-73.83,82.53-45.87,127.96-93,120.9-134.46-8.75-51.47-96.68-84.44-231.7-96.13,47.82-33.6,72.83-67.6,67.57-98.5-15.54-91.38-272.98-121.09-595.43-66.24C374.4,345.77,125.6,464.31,141.15,555.69c4.99,29.33,34.93,52.29,83.91,68.16-127.67,56.51-202.54,117.95-193.62,170.34,5.52,32.47,42.56,57.57,103.04,74.62-58.5,27.86-91.71,59.68-91.39,93.22,.99,104.24,325.35,185.67,724.48,181.88,399.13-3.79,721.89-91.36,720.9-195.6-.38-39.51-47.22-75.74-126.98-105.3Z"/><g><g><rect class="cls-31" x="35.61" y="381.37" width="559.6" height="324.99" rx="17.6" ry="17.6" transform="translate(-90.62 63.85) rotate(-10.12)"/><path class="cls-8" d="M603.09,663.46L86.84,755.57c-12.69,2.26-24.85-6.22-27.11-18.9L8.83,451.38c-2.26-12.69,6.22-24.85,18.9-27.11l516.24-92.11c12.69-2.26,24.85,6.22,27.11,18.9l50.9,285.28c2.26,12.69-6.22,24.85-18.9,27.11ZM29.76,435.63c-6.42,1.15-10.71,7.3-9.57,13.73l50.9,285.28c1.15,6.42,7.3,10.71,13.73,9.57l516.24-92.11c6.42-1.15,10.71-7.3,9.57-13.73l-50.9-285.28c-1.15-6.42-7.3-10.71-13.73-9.57L29.76,435.63Z"/></g><rect class="cls-28" x="73.29" y="448.67" width="142.3" height="36.54" rx="12.96" ry="12.96" transform="translate(-79.77 32.63) rotate(-10.12)"/><rect class="cls-12" x="238.79" y="406.62" width="282.68" height="36.54" rx="16.39" ry="16.39" transform="translate(-68.72 73.37) rotate(-10.12)"/><rect class="cls-12" x="84.55" y="522.11" width="126.92" height="17.31" rx="4.77" ry="4.77" transform="translate(-90.92 34.25) rotate(-10.12)"/><rect class="cls-12" x="88.11" y="527.64" width="451.91" height="17.31" rx="4.77" ry="4.77" transform="translate(-89.31 63.5) rotate(-10.12)"/><rect class="cls-12" x="94.89" y="575.46" width="230.76" height="17.31" rx="4.77" ry="4.77" transform="translate(-99.33 46.01) rotate(-10.12)"/><rect class="cls-12" x="100.01" y="598.73" width="353.83" height="17.31" rx="4.77" ry="4.77" transform="translate(-102.38 58.08) rotate(-10.12)"/><rect class="cls-12" x="106.55" y="643.68" width="165.38" height="17.31" rx="4.77" ry="4.77" transform="translate(-111.63 43.38) rotate(-10.12)"/><rect class="cls-12" x="110.8" y="657.15" width="399.99" height="17.31" rx="4.77" ry="4.77" transform="translate(-112.11 64.94) rotate(-10.12)"/></g><ellipse class="cls-1" cx="747.64" cy="1101.34" rx="661.96" ry="225.97"/><g><path class="cls-31" d="M1081.82,281.91l19.31,4.49,235.1,54.65c26.46,6.15,42.92,32.58,36.77,59.04l-71.9,309.33,15.58,3.62c15.74,3.66,25.53,19.38,21.87,35.12l-4.01,17.25c-3.66,15.74-19.38,25.53-35.12,21.87l-15.58-3.62-235.1-54.65c-26.46-6.15-42.92-32.58-36.77-59.04l71.9-309.33-19.31-4.49c-13.67-3.18-22.18-16.84-19-30.52l5.74-24.71c3.18-13.67,16.84-22.18,30.52-19Z"/><g><path class="cls-38" d="M1289.88,747.16c3.42-14.71,15.05-24.62,25.92-22.09s16.94,16.55,13.52,31.26c-3.42,14.71-15.05,24.62-25.92,22.09-10.87-2.53-16.94-16.55-13.52-31.26Zm2.32,.54c-3.12,13.43,2.14,26.17,11.74,28.4s19.94-6.88,23.06-20.31-2.14-26.17-11.74-28.4c-9.59-2.23-19.94,6.88-23.06,20.31Z"/><path class="cls-38" d="M1296.57,749.93c2.08-8.95,9.5-14.91,16.53-13.27,7.03,1.64,11.07,10.25,8.98,19.2s-9.5,14.91-16.53,13.27-11.07-10.25-8.98-19.2Zm2.32,.54c-1.78,7.67,1.45,15.01,7.2,16.34,5.76,1.34,11.89-3.82,13.67-11.49,1.78-7.67-1.45-15.01-7.2-16.34s-11.89,3.82-13.67,11.49Z"/><path class="cls-38" d="M1304.82,751.24c1.13-4.88,4.31-8.17,7.24-7.49s4.33,5.03,3.2,9.91c-1.13,4.88-4.31,8.17-7.24,7.49s-4.33-5.03-3.2-9.91Zm2.32,.54c-.85,3.65,.05,6.74,1.42,7.05s3.53-2.05,4.38-5.71c.85-3.65-.05-6.74-1.42-7.05s-3.53,2.05-4.38,5.71Z"/></g><polygon class="cls-38" points="1083.88 360.63 1366.88 426.42 1081.72 369.91 1083.88 360.63"/><path class="cls-38" d="M1301.1,709.42l-2.13,9.18c1.41-1.13,3.3-2.41,5.69-3.46,4.92-2.16,9.42-2.25,12.02-2.1-5.19-1.21-10.39-2.41-15.58-3.62Z"/><path class="cls-29" d="M1090.16,430.55c10.36,2.41,16.69,.68,21.78-.71,4.44-1.21,7.94-2.17,14.78-.57,6.84,1.59,9.57,3.99,13.01,7.04,3.95,3.49,8.88,7.83,19.23,10.24,10.35,2.41,16.68,.68,21.77-.71,4.43-1.21,7.93-2.17,14.77-.58,6.84,1.59,9.56,3.99,13.01,7.03,3.95,3.49,8.87,7.83,19.23,10.24s16.68,.68,21.77-.71c4.43-1.21,7.93-2.17,14.77-.58s9.56,3.99,13.01,7.03c3.95,3.49,8.87,7.83,19.23,10.24,10.35,2.41,16.69,.68,21.77-.71,4.43-1.21,7.93-2.17,14.77-.58,3.84,.89,7.68-1.5,8.58-5.34s-1.5-7.68-5.34-8.58c-10.35-2.41-16.68-.68-21.77,.71-4.43,1.21-7.93,2.17-14.77,.58s-9.56-3.99-13.01-7.03c-3.95-3.49-8.87-7.83-19.23-10.24-10.35-2.41-16.68-.68-21.77,.71-4.43,1.21-7.93,2.17-14.77,.58s-9.56-3.99-13.01-7.03c-3.95-3.49-8.87-7.83-19.23-10.24-10.35-2.41-16.68-.68-21.77,.71-4.43,1.21-7.93,2.17-14.77,.58-6.84-1.59-9.57-3.99-13.01-7.04-3.95-3.49-8.88-7.83-19.23-10.24-10.36-2.41-16.69-.68-21.78,.71-4.44,1.21-7.94,2.17-14.78,.57-3.84-.89-7.68,1.5-8.58,5.34-.89,3.84,1.5,7.68,5.34,8.58Z"/><path class="cls-29" d="M1078.84,479.27c10.36,2.41,16.69,.68,21.78-.71,4.44-1.21,7.94-2.17,14.78-.57s9.57,3.99,13.01,7.04c3.95,3.49,8.88,7.83,19.23,10.24,10.35,2.41,16.68,.68,21.77-.71,4.43-1.21,7.93-2.17,14.77-.58,6.84,1.59,9.56,3.99,13.01,7.03,3.95,3.49,8.87,7.83,19.23,10.24,10.35,2.41,16.68,.68,21.77-.71,4.43-1.21,7.93-2.17,14.77-.58s9.56,3.99,13.01,7.03c3.95,3.49,8.87,7.83,19.23,10.24,10.35,2.41,16.69,.68,21.77-.71,4.43-1.21,7.93-2.17,14.77-.58,3.84,.89,7.68-1.5,8.58-5.34s-1.5-7.68-5.34-8.58c-10.35-2.41-16.68-.68-21.77,.71-4.43,1.21-7.93,2.17-14.77,.58-6.84-1.59-9.56-3.99-13.01-7.03-3.95-3.49-8.87-7.83-19.23-10.24-10.35-2.41-16.68-.68-21.77,.71-4.43,1.21-7.93,2.17-14.77,.58-6.84-1.59-9.56-3.99-13.01-7.03-3.95-3.49-8.87-7.83-19.23-10.24-10.35-2.41-16.68-.68-21.77,.71-4.43,1.21-7.93,2.17-14.77,.58s-9.57-3.99-13.01-7.04c-3.95-3.49-8.88-7.83-19.23-10.24-10.36-2.41-16.69-.68-21.78,.71-4.44,1.21-7.94,2.17-14.78,.57-3.84-.89-7.68,1.5-8.58,5.34-.89,3.84,1.5,7.68,5.34,8.58Z"/><path class="cls-29" d="M1067.52,527.98c10.36,2.41,16.69,.68,21.78-.71,4.44-1.21,7.94-2.17,14.78-.57,6.84,1.59,9.57,3.99,13.01,7.04,3.95,3.49,8.88,7.83,19.23,10.24,10.35,2.41,16.68,.68,21.77-.71,4.43-1.21,7.93-2.17,14.77-.58,6.84,1.59,9.56,3.99,13.01,7.03,3.95,3.49,8.87,7.83,19.23,10.24,10.35,2.41,16.68,.68,21.77-.71,4.43-1.21,7.93-2.17,14.77-.58,6.84,1.59,9.56,3.99,13.01,7.03,3.95,3.49,8.87,7.83,19.23,10.24,10.35,2.41,16.69,.68,21.77-.71,4.43-1.21,7.93-2.17,14.77-.58,3.84,.89,7.68-1.5,8.58-5.34s-1.5-7.68-5.34-8.58c-10.35-2.41-16.68-.68-21.77,.71-4.43,1.21-7.93,2.17-14.77,.58-6.84-1.59-9.56-3.99-13.01-7.03-3.95-3.49-8.87-7.83-19.23-10.24-10.35-2.41-16.68-.68-21.77,.71-4.43,1.21-7.93,2.17-14.77,.58s-9.56-3.99-13.01-7.03c-3.95-3.49-8.87-7.83-19.23-10.24s-16.68-.68-21.77,.71c-4.43,1.21-7.93,2.17-14.77,.58-6.84-1.59-9.57-3.99-13.01-7.04-3.95-3.49-8.88-7.83-19.23-10.24-10.36-2.41-16.69-.68-21.78,.71-4.44,1.21-7.94,2.17-14.78,.57-3.84-.89-7.68,1.5-8.58,5.34s1.5,7.68,5.34,8.58Z"/><path class="cls-29" d="M1056.19,576.69c10.36,2.41,16.69,.68,21.78-.71,4.44-1.21,7.94-2.17,14.78-.57,6.84,1.59,9.57,3.99,13.01,7.04,3.95,3.49,8.88,7.83,19.23,10.24s16.68,.68,21.77-.71c4.43-1.21,7.93-2.17,14.77-.58,6.84,1.59,9.56,3.99,13.01,7.03,3.95,3.49,8.87,7.83,19.23,10.24s16.68,.68,21.77-.71c4.43-1.21,7.93-2.17,14.77-.58,6.84,1.59,9.56,3.99,13.01,7.03,3.95,3.49,8.87,7.83,19.23,10.24s16.69,.68,21.77-.71c4.43-1.21,7.93-2.17,14.77-.58,3.84,.89,7.68-1.5,8.58-5.34s-1.5-7.68-5.34-8.58c-10.35-2.41-16.68-.68-21.77,.71-4.43,1.21-7.93,2.17-14.77,.58-6.84-1.59-9.56-3.99-13.01-7.03-3.95-3.49-8.87-7.83-19.23-10.24-10.35-2.41-16.68-.68-21.77,.71-4.43,1.21-7.93,2.17-14.77,.58-6.84-1.59-9.56-3.99-13.01-7.03-3.95-3.49-8.87-7.83-19.23-10.24-10.35-2.41-16.68-.68-21.77,.71-4.43,1.21-7.93,2.17-14.77,.58s-9.57-3.99-13.01-7.04c-3.95-3.49-8.88-7.83-19.23-10.24-10.36-2.41-16.69-.68-21.78,.71-4.44,1.21-7.94,2.17-14.78,.57-3.84-.89-7.68,1.5-8.58,5.34-.89,3.84,1.5,7.68,5.34,8.58Z"/><path class="cls-29" d="M1044.87,625.41c10.36,2.41,16.69,.68,21.78-.71,4.44-1.21,7.94-2.17,14.78-.57,6.84,1.59,9.57,3.99,13.01,7.04,3.95,3.49,8.88,7.83,19.23,10.24,10.35,2.41,16.68,.68,21.77-.71,4.43-1.21,7.93-2.17,14.77-.58,6.84,1.59,9.56,3.99,13.01,7.03,3.95,3.49,8.87,7.83,19.23,10.24s16.68,.68,21.77-.71c4.43-1.21,7.93-2.17,14.77-.58s9.56,3.99,13.01,7.03c3.95,3.49,8.87,7.83,19.23,10.24,10.35,2.41,16.69,.68,21.77-.71,4.43-1.21,7.93-2.17,14.77-.58,3.84,.89,7.68-1.5,8.58-5.34,.89-3.84-1.5-7.68-5.34-8.58-10.35-2.41-16.68-.68-21.77,.71-4.43,1.21-7.93,2.17-14.77,.58-6.84-1.59-9.56-3.99-13.01-7.03-3.95-3.49-8.87-7.83-19.23-10.24-10.35-2.41-16.68-.68-21.77,.71-4.43,1.21-7.93,2.17-14.77,.58-6.84-1.59-9.56-3.99-13.01-7.03-3.95-3.49-8.87-7.83-19.23-10.24-10.35-2.41-16.68-.68-21.77,.71-4.43,1.21-7.93,2.17-14.77,.58s-9.57-3.99-13.01-7.04c-3.95-3.49-8.88-7.83-19.23-10.24-10.36-2.41-16.69-.68-21.78,.71-4.44,1.21-7.94,2.17-14.78,.57-3.84-.89-7.68,1.5-8.58,5.34s1.5,7.68,5.34,8.58Z"/></g><g><ellipse class="cls-33" cx="751.18" cy="1085.39" rx="601.7" ry="195.84"/><ellipse class="cls-2" cx="746.75" cy="1079.18" rx="556.51" ry="168.37"/><ellipse class="cls-33" cx="740.55" cy="1077.41" rx="495.36" ry="138.24"/><ellipse class="cls-2" cx="746.75" cy="1072.98" rx="451.94" ry="123.18"/></g><g><path class="cls-34" d="M1243.13,1093.78l-104.86-101.74c-5.08-4.93-4.84-13.15,.48-17.87,20.57-18.21,35.01-35.16,44.72-47.87,20.49-26.82,25.23-41.62,44.9-62.81,17.06-18.38,35.11-30.52,49.42-38.43,4.67-2.58,10.47-1.78,14.28,1.92l102.88,99.82c6.23,6.04,4.26,16.5-3.75,19.92-14.1,6.03-30.14,15.28-44.7,29.78-16.83,16.75-21.98,30.82-37.65,55.34-10.15,15.87-25.6,37.52-48.4,61.52-4.69,4.93-12.47,5.15-17.33,.43Z"/><path class="cls-12" d="M1237.81,1088.61l-101.71-98.69c-4.93-4.78-4.72-12.74,.43-17.29,19.87-17.57,33.79-33.94,43.17-46.22,19.77-25.9,24.32-40.21,43.31-60.67,16.47-17.75,33.9-29.45,47.74-37.07,4.51-2.49,10.13-1.7,13.82,1.89l99.79,96.82c6.04,5.86,4.16,15.97-3.58,19.27-13.63,5.8-29.13,14.72-43.19,28.71-16.25,16.17-21.2,29.77-36.31,53.46-9.78,15.33-24.69,36.24-46.7,59.41-4.52,4.76-12.05,4.95-16.77,.38Z"/><rect class="cls-11" x="1248.9" y="887.63" width="98.27" height="10.05" rx="2.86" ry="2.86" transform="translate(988.06 -651.9) rotate(44.14)"/><rect class="cls-11" x="1238.2" y="911.48" width="98.27" height="10.05" rx="2.86" ry="2.86" transform="translate(1001.65 -637.72) rotate(44.14)"/><rect class="cls-11" x="1225.1" y="933" width="98.27" height="10.05" rx="2.86" ry="2.86" transform="translate(1012.94 -622.52) rotate(44.14)"/><rect class="cls-11" x="1207.19" y="949.85" width="98.27" height="10.05" rx="2.86" ry="2.86" transform="translate(1019.62 -605.29) rotate(44.14)"/><rect class="cls-11" x="1192.49" y="969.82" width="98.27" height="10.05" rx="2.86" ry="2.86" transform="translate(1029.37 -589.41) rotate(44.14)"/><rect class="cls-11" x="1176.19" y="988.23" width="98.27" height="10.05" rx="2.86" ry="2.86" transform="translate(1037.58 -572.86) rotate(44.14)"/><rect class="cls-11" x="1163.89" y="1010.52" width="98.27" height="10.05" rx="2.86" ry="2.86" transform="translate(1049.64 -558) rotate(44.14)"/></g><g><path class="cls-34" d="M280.45,982.89l85.45-82.91c4.14-4.02,3.95-10.72-.39-14.56-16.77-14.84-28.53-28.65-36.44-39.01-16.7-21.85-20.56-33.91-36.59-51.19-13.91-14.98-28.61-24.87-40.27-31.32-3.81-2.1-8.53-1.45-11.64,1.57l-83.84,81.35c-5.07,4.92-3.47,13.44,3.05,16.24,11.49,4.91,24.56,12.45,36.43,24.27,13.72,13.65,17.91,25.12,30.68,45.1,8.27,12.93,20.86,30.57,39.44,50.13,3.82,4.02,10.16,4.19,14.12,.35Z"/><path class="cls-12" d="M284.79,978.68l82.89-80.42c4.02-3.9,3.84-10.38-.35-14.09-16.19-14.32-27.54-27.66-35.18-37.67-16.11-21.11-19.82-32.77-35.29-49.44-13.42-14.46-27.63-24-38.9-30.21-3.68-2.03-8.25-1.38-11.26,1.54l-81.32,78.9c-4.92,4.78-3.39,13.02,2.92,15.7,11.11,4.73,23.74,11.99,35.2,23.4,13.24,13.17,17.27,24.26,29.59,43.56,7.97,12.5,20.12,29.53,38.05,48.41,3.69,3.88,9.82,4.03,13.66,.31Z"/><rect class="cls-11" x="195.67" y="814.89" width="80.08" height="8.19" rx="2.33" ry="2.33" transform="translate(975.19 1242.63) rotate(135.86)"/><rect class="cls-11" x="204.38" y="834.33" width="80.08" height="8.19" rx="2.33" ry="2.33" transform="translate(1003.69 1269.95) rotate(135.86)"/><rect class="cls-11" x="215.06" y="851.87" width="80.08" height="8.19" rx="2.33" ry="2.33" transform="translate(1034.24 1292.64) rotate(135.86)"/><rect class="cls-11" x="229.65" y="865.6" width="80.08" height="8.19" rx="2.33" ry="2.33" transform="translate(1068.88 1306.07) rotate(135.86)"/><rect class="cls-11" x="241.64" y="881.87" width="80.08" height="8.19" rx="2.33" ry="2.33" transform="translate(1100.79 1325.67) rotate(135.86)"/><rect class="cls-11" x="254.92" y="896.87" width="80.08" height="8.19" rx="2.33" ry="2.33" transform="translate(1134.06 1342.18) rotate(135.86)"/><rect class="cls-11" x="264.95" y="915.04" width="80.08" height="8.19" rx="2.33" ry="2.33" transform="translate(1163.93 1366.41) rotate(135.86)"/></g></g><g><g><path class="cls-22" d="M1122.48,733.58c0,163.46-168.62,295.98-376.62,295.98s-376.62-132.51-376.62-295.98c0-127.61,169.5-340.28,377.5-340.28s375.73,217.99,375.73,340.28Z"/><path class="cls-6" d="M799.44,623.65c-.05,0-.1,0-.15,0-1.46-.08-2.59-1.33-2.51-2.8,.11-1.95,3.19-48.24,56.14-84.88,1.21-.84,2.86-.53,3.7,.67,.84,1.21,.53,2.86-.67,3.7-50.7,35.08-53.83,80.34-53.86,80.79-.08,1.41-1.25,2.51-2.65,2.51Z"/><path class="cls-6" d="M809.62,590.89c-.82,0-1.62-.37-2.14-1.08-.87-1.18-.62-2.84,.56-3.72,1.46-1.08,35.94-26.31,62.64-21.8,1.45,.24,2.42,1.62,2.18,3.06-.24,1.45-1.61,2.42-3.06,2.18-24.47-4.14-58.25,20.58-58.59,20.83-.48,.35-1.03,.52-1.58,.52Z"/><ellipse class="cls-22" cx="738.78" cy="926.76" rx="459.92" ry="274.71"/><path class="cls-6" d="M764,1171c-338,0-449.57-157-475.32-187.53,43.75,124.51,228.64,218,450.1,218,248.72,0,451.32-117.93,459.64-265.28,0,0-98.42,234.81-434.42,234.81Z"/><path class="cls-6" d="M453.43,1010.06c-.7,0-1.4-.28-1.93-.83-1.01-1.06-.97-2.74,.09-3.75,1.48-1.41,37-34.46,104.05-24.63,1.45,.21,2.46,1.56,2.25,3.02-.21,1.45-1.55,2.46-3.02,2.25-64.35-9.43-99.27,22.89-99.61,23.22-.51,.49-1.17,.73-1.83,.73Z"/><path class="cls-6" d="M813.21,1119.21c-.55,0-1.1-.17-1.58-.52-1.18-.87-1.43-2.54-.56-3.72l3.07-4.15c17.05-23.06,39.89-41.47,66.05-53.23l94.24-42.37c27.98-12.58,51.73-32.74,68.69-58.3,.81-1.22,2.46-1.56,3.69-.75,1.22,.81,1.56,2.46,.75,3.69-17.52,26.4-42.05,47.21-70.94,60.21l-94.24,42.37c-25.33,11.39-47.45,29.21-63.96,51.54l-3.07,4.15c-.52,.7-1.33,1.08-2.14,1.08Z"/><path class="cls-6" d="M751.18,1113.67c-.53,0-1.07-.16-1.54-.49-8.38-5.97-15.38-16.33-20.79-30.8-6.03-16.1-15.95-25.5-35.39-33.52-5.54-2.29-14.82-4.41-20.59-5.14l-131.03-10.62c-1.46-.12-2.55-1.4-2.44-2.86,.12-1.46,1.4-2.55,2.86-2.44l131.15,10.63c6.15,.77,15.89,2.96,22.07,5.51,20.71,8.55,31.82,19.14,38.34,36.57,5.04,13.46,11.4,22.99,18.9,28.33,1.2,.85,1.48,2.51,.62,3.71-.52,.73-1.34,1.12-2.17,1.12Z"/><path class="cls-6" d="M1061.34,855.87c-.72,0-1.43-.29-1.95-.86-41.12-44.55-101.79-39.97-102.39-39.92-1.46,.12-2.75-.96-2.87-2.42-.12-1.46,.96-2.75,2.42-2.87,.63-.05,63.83-4.89,106.75,41.61,1,1.08,.93,2.76-.15,3.76-.51,.47-1.16,.71-1.8,.71Z"/><path class="cls-6" d="M1021.77,865.62c-1.28,0-2.41-.93-2.62-2.23-5.69-35.06-28.55-57.67-28.78-57.89-1.05-1.02-1.07-2.71-.05-3.76,1.02-1.05,2.71-1.07,3.76-.05,.99,.97,24.35,24.08,30.32,60.85,.24,1.45-.75,2.82-2.2,3.05-.14,.02-.29,.03-.43,.03Z"/><path class="cls-6" d="M633.33,729.15c-.85,0-1.68-.41-2.2-1.16-37.05-54.28-94.26-65.24-94.83-65.35-1.44-.26-2.4-1.65-2.14-3.09,.26-1.44,1.65-2.4,3.09-2.14,.6,.11,59.98,11.48,98.27,67.58,.83,1.21,.52,2.87-.7,3.69-.46,.31-.98,.46-1.5,.46Z"/><path class="cls-6" d="M572.5,720.21c-.29,0-.58-.05-.86-.14-1.39-.48-2.13-1.99-1.65-3.38,.18-.52,17.46-51.95,.15-85.77-.67-1.31-.15-2.91,1.15-3.58,1.31-.67,2.91-.15,3.58,1.15,18.35,35.85,.9,87.73,.15,89.92-.38,1.1-1.41,1.8-2.51,1.8Z"/><path class="cls-6" d="M1004.93,935.87c-8.78,26.88-35.63,21.14-140.17,71.38-69.63,33.47-84.34,48.81-119.41,46.72-33.7-2-43.35-17.55-96.04-45.43-103.9-54.97-154.66-41.25-163.53-72.68-10.6-37.56,50.04-99.02,115.51-119.41,46.25-14.4,57.57,3.33,144.07,1.3,104.33-2.45,122.25-29.05,170.02-10.38,56.46,22.06,103.05,87.18,89.55,128.49Z"/><path class="cls-6" d="M492.8,792.13l-.03,1.75c-.2,11.92,4.46,23.42,13,31.74,9.71,9.46,21.12,23.55,20.83,37.35l38.49-13.29-21.27-60.26-23.98-13.04c-12.07-6.57-26.81,2.02-27.04,15.76Z"/></g><g><g><g><path class="cls-21" d="M883.83,879.95c19.98,.75,42.95,2.88,68.1,7.52,17.57,3.24,33.74,7.26,48.4,11.6,9.14,2.71,10.26,15.21,1.77,19.57-51.63,26.49-103.25,52.98-154.88,79.47l-162.52-22.87-210.6-31.54s2.92-36.96,113.03-65.47c37.87-9.8,296.7,1.73,296.7,1.73Z"/><path class="cls-13" d="M715.34,903.22l16.68,33.53c1.68,3.37,4.37,6.12,7.7,7.87l19.88,10.44,15.8-10.41c6.08-4,10.23-10.38,11.31-17.59,1.14-7.67,3.22-17.81,6.84-25.12l-78.21,1.27Z"/><path class="cls-14" d="M761.03,958.4l-15.87-7.74c-9.08-4.43-16.12-12.66-19.32-22.59-3.04-9.43-7.12-15.89-11.81-18.69l1.9-3.18c5.56,3.32,10.08,10.3,13.44,20.74,2.89,8.97,9.24,16.41,17.41,20.4l13.96,6.81,10.22-6.77c7.92-5.24,13.3-13.64,14.77-23.03,1.49-9.53,3.04-16.19,4.6-19.79l3.4,1.47c-1.42,3.27-2.92,9.8-4.34,18.89-1.63,10.42-7.6,19.73-16.39,25.55l-11.99,7.94Z"/><path class="cls-14" d="M778.61,944.68c-.34-.03-.68-.15-.98-.37-.81-.62-.97-1.78-.35-2.6,.72-.94,17.68-23.03,33.28-27.34,.98-.27,2.01,.31,2.28,1.3,.27,.99-.31,2.01-1.3,2.28-14.39,3.97-31.15,25.79-31.32,26.01-.4,.52-1.02,.77-1.62,.72Z"/><path class="cls-14" d="M733.98,941.82c-.47-.04-.93-.25-1.26-.63-.1-.12-10.59-12-30.15-15.07-1.01-.16-1.7-1.11-1.55-2.12,.16-1.01,1.11-1.72,2.12-1.55,20.97,3.29,31.93,15.78,32.38,16.31,.67,.78,.58,1.94-.2,2.61-.39,.34-.88,.48-1.36,.44Z"/><path class="cls-25" d="M803.49,988.47l.19-2.4c.63-7.77-2.56-16.2-8.14-21.48-4.98-4.72-11.57-6.68-19.05-5.66-20.56,2.79-76.26-.04-78.62-.16h-.19s-.19-.06-.19-.06l-127.41-33.51c-.99-.26-1.58-1.27-1.32-2.27,.26-.99,1.26-1.58,2.27-1.32l127.22,33.46c3.67,.18,58.12,2.85,77.74,.18,10.9-1.48,18.04,2.79,22.1,6.64,5.79,5.49,9.33,13.95,9.37,22.1l54.37-9.71,80.61-60.41c.82-.61,1.98-.45,2.6,.37,.61,.82,.45,1.98-.37,2.6l-81.32,60.94-59.87,10.7Z"/></g><g><path class="cls-21" d="M690.35,1031.43l7.61-74.51-170.99-43.97c-25.93-4.98-50.99,12-55.97,37.93h0c-4.98,25.93,12,50.99,37.93,55.97l181.41,24.58Z"/><path class="cls-9" d="M697.23,957.26c-4.1,8.89-8.75,21.28-11.36,36.62-2.46,14.46-2.36,27.08-1.54,36.74,.15,1.79,1.5,3.25,3.26,3.59,13.49,2.59,26.98,5.18,40.48,7.77,5.59,1.07,9.77,5.74,10.19,11.42,1.17,16.03,4.9,46.92,16.45,50.4,15.67,4.73,.44-2.31,.44-2.31l48.09-106.78c3.33-7.4,3.07-15.32,.14-22.03-4.57-10.45-15.76-16.41-27.13-15.6l-24.59,1.75c-3.63,.26-7.27,.31-10.9,.17l-43.52-1.75Z"/><path class="cls-15" d="M805.33,987.26c1.45-10.24-3.04-20.38-11.59-26.14-4.89-3.3-10.9-4.5-16.79-4.08l-25.3,1.8c-3.63,.26-7.27,.31-10.9,.17l-40.5-1.63c6.85,1.32,29.5,5.01,66.28,4.5,11.74-.16,22.68,4.94,30.02,13.41,2.17,2.51,1.07,6.43-2.11,7.38h0c-14.51,4.37-26.69,14.33-33.84,27.7l-11.72,21.92c-7.17,13.41-9.42,28.91-6.37,43.8l.08,.37c2.33,11.21,6.3,20.02,9.58,26.02h.03s12.39-21.93,12.39-21.93l38.66-85.84c.6-1.32,1.04-2.66,1.41-4,0,0,0,0,0,0,.01-.04,.01-.07,.02-.11,.29-1.1,.54-2.2,.69-3.3l-.03-.04Z"/></g><g><path class="cls-21" d="M874.88,1049.71l-12.28-73.68,92.86-69.59c21.07-15.92,51.05-11.74,66.97,9.32h0c6.63,8.78,9.78,19.1,9.66,29.31-.2,17.78-11.1,33.71-27,41.66l-130.21,62.98Z"/><path class="cls-9" d="M862.6,976.02l-60.98,10.89c-13.59,2.43-25.27,11.05-31.59,23.33l-15.87,30.81c-5.31,10.31-8.09,21.82-7.49,33.4,1.84,35.2,21.9,45.42,34.85,48.34,5.68,1.28,11.64-1.29,14.26-6.49,18.91-37.52,68.11-60.19,78.36-64.58,1.16-.5,1.95-1.59,2.03-2.85,.62-9.62,.5-22.13-2.08-36.42-2.74-15.18-7.37-27.5-11.5-36.43Z"/><path class="cls-16" d="M754.56,1105.65c-.68-.05-1.3-.48-1.57-1.15l-1.72-4.21c-9.56-23.39-7.72-50.41,4.93-72.29l11.44-19.8c7.9-13.67,22.01-22.58,37.74-23.84,1.02-.08,1.92,.68,2,1.7,.08,1.02-.68,1.92-1.7,2-14.52,1.16-27.54,9.39-34.83,22l-11.44,19.8c-12.07,20.89-13.83,46.7-4.7,69.03l1.72,4.21c.39,.95-.07,2.03-1.02,2.42-.28,.11-.57,.16-.85,.13Z"/><path class="cls-15" d="M796.38,1106.82c-6.17,8.35-17.77,10.73-26.65,5.36-.06-.04-.13-.08-.19-.12-7.02-4.26-12.71-8.74-17.17-12.73,2.7,7.95,15.64,21.03,29.61,23.54,5.88,1.06,11.57-2.3,14.34-7.6,19.3-36.94,67.76-59.24,77.86-63.57,1.17-.5,1.93-1.59,2.01-2.86,.06-.88,.1-1.82,.14-2.75-43.52,18.43-68.11,44.71-79.94,60.72Z"/></g></g><g><path class="cls-30" d="M865.5,882.46h-217.99l-21.66-242.14c-1.73-19.32,11.83-36.67,31-39.66l102.32-15.96,97.25,15.78c19.06,3.09,32.49,20.39,30.77,39.62l-21.68,242.35Z"/><polygon class="cls-27" points="839.11 703.12 874.83 778.15 877.4 750.25 839.11 703.12"/><path class="cls-27" d="M637.73,773.27l34.58-64.5s-25.99,11.82-38.99,17.72l4.41,46.78Z"/><g><polygon class="cls-18" points="758.5 618.94 750.68 636.14 750.68 829.76 764.75 829.96 764.75 636.14 758.5 618.94"/><circle class="cls-5" cx="757.72" cy="650.99" r="3.91"/><circle class="cls-5" cx="757.72" cy="691.63" r="3.91"/><circle class="cls-5" cx="757.72" cy="732.27" r="3.91"/><circle class="cls-5" cx="757.72" cy="772.27" r="3.91"/></g></g><g><rect class="cls-37" x="868.69" y="576.23" width="85.07" height="271.99" rx="42.54" ry="42.54" transform="translate(-242.76 789.14) rotate(-41.82)"/><path class="cls-30" d="M965.72,699.12c2.56,2.55,2.92,6.56,.85,9.52-6.99,10.02-16.8,22.01-30.18,33.81-12.4,10.93-24.57,18.8-34.88,24.41-4.36,2.37-9.78,1.3-12.89-2.57-24.84-30.91-49.68-61.82-74.52-92.73-15.67-17.51-12.19-46.37,5.32-62.03,17.51-15.67,45.52-12.81,61.18,4.69l85.12,84.9Z"/><rect class="cls-37" x="874.34" y="713.14" width="85.07" height="230.33" rx="42.54" ry="42.54" transform="translate(969.22 -406.2) rotate(50.33)"/><path class="cls-24" d="M877.4,750.25c-.26,0-.52-.11-.69-.33l-37.61-46.8c-.31-.38-.25-.94,.14-1.25,.38-.31,.94-.25,1.25,.14l37.61,46.8c.31,.38,.25,.94-.14,1.25-.16,.13-.36,.2-.55,.2Z"/><path class="cls-7" d="M912.11,777.88c-.19,0-.39-.06-.55-.19-.38-.3-.45-.86-.15-1.24,.5-.63,12.47-15.41,39.21-13.62,.49,.03,.86,.46,.83,.94-.03,.49-.46,.86-.94,.83-25.78-1.73-37.58,12.81-37.7,12.95-.17,.22-.43,.34-.7,.34Z"/></g><g><rect class="cls-37" x="560.31" y="576.23" width="85.07" height="271.99" rx="42.54" ry="42.54" transform="translate(577.13 1644.97) rotate(-138.18)"/><path class="cls-30" d="M543.21,704.83c-2.23,2.3-2.42,5.87-.47,8.4,7.2,9.3,17.1,20.3,30.32,30.98,14.26,11.52,28.12,19.24,39.35,24.4,2.9,1.33,6.33,.62,8.44-1.78,28.38-32.35,56.76-64.7,85.13-97.05,15.12-18.33,8.84-42.64-8.86-58.49h0c-17.71-15.85-48.36-15.3-64.91,1.76l-89.01,91.78Z"/><rect class="cls-37" x="554.66" y="713.14" width="85.07" height="230.33" rx="42.54" ry="42.54" transform="translate(1616 897.33) rotate(129.67)"/><path class="cls-24" d="M636.45,750.59c-.19,0-.39-.08-.55-.22-.37-.32-.41-.88-.09-1.25l35.77-41.13c.32-.37,.88-.41,1.25-.09,.37,.32,.41,.88,.09,1.25l-35.77,41.13c-.18,.21-.44,.31-.7,.3Z"/><path class="cls-7" d="M602.84,778.62c-.22,0-.44-.08-.61-.24-.12-.12-12.7-11.64-33.21-3.6-.46,.18-.97-.04-1.15-.5-.18-.46,.05-.97,.5-1.15,21.61-8.47,34.95,3.83,35.08,3.96,.35,.34,.37,.9,.03,1.25-.17,.19-.41,.28-.64,.28Z"/></g><g><g><ellipse class="cls-23" cx="835.82" cy="482.57" rx="32.54" ry="22.18" transform="translate(345.33 1313.77) rotate(-89.46)"/><path class="cls-36" d="M832.85,494.94s-.07,0-.11,0c-.88-.05-1.63-.68-1.82-1.54-1.86-8.31-1.07-14.83,2.34-19.39,4.89-6.53,13.6-6.61,13.69-6.61,.48,.02,1.01,.19,1.39,.57,.38,.37,.59,.87,.59,1.41,0,1.09-.88,1.98-1.97,1.98-.06,0-6.89,.15-10.54,5.03-2.69,3.59-3.24,9.02-1.65,16.15,.24,1.06-.44,2.12-1.5,2.36-.14,.03-.29,.05-.43,.05Z"/><path class="cls-36" d="M849.32,477.15c-.06-.04-5.67-3.9-12.9-.78-1.82,.78-3.75,2.01-5.69,3.84-.13,.13-.26,.28-.34,.45,0,0,0,.02-.02,.02-.15,.28-.25,.59-.26,.91,0,.15,0,.3,.04,.43,.08,.36,.25,.7,.51,.98,.34,.36,.81,.59,1.32,.61,.04,0,.08,.02,.09,.02,.51,0,1-.21,1.36-.55,.21-.19,.42-.38,.62-.57,7.07-6.13,12.75-2.33,12.99-2.14,.89,.62,2.12,.42,2.74-.47,.64-.89,.42-2.14-.47-2.76Z"/><ellipse class="cls-23" cx="672.86" cy="482.57" rx="22.18" ry="32.54" transform="translate(-4.55 6.41) rotate(-.54)"/><path class="cls-36" d="M679.18,480.97c-.02-.13-.06-.25-.11-.38v-.04c-.06-.34-.15-.66-.28-.98-.78-2.46-1.97-4.56-3.56-6.26-5.6-6-14.24-5.09-14.3-5.09-.53,.04-1,.28-1.34,.7-.34,.4-.49,.95-.43,1.48,.11,1.08,1.06,1.85,2.16,1.76,.06,0,6.83-.59,10.97,3.8l.06,.06c1.42,1.51,2.4,3.46,2.99,5.83,.7,2.78,.83,6.13,.4,10.04-.11,1.08,.66,2.06,1.76,2.18,.06,.02,.13,.02,.21,.02,.09,0,.21,0,.3-.02h.02c.87-.15,1.55-.87,1.65-1.74,.06-.45,.09-.91,.11-1.36,0-.02-.02-.04,0-.06,.32-3.75,.13-7.06-.59-9.93Z"/><path class="cls-36" d="M679.05,480.05c-.02-.06-.04-.11-.06-.15,0,0-.02,0-.02-.02-.04-.11-.11-.21-.19-.3-.09-.15-.23-.26-.38-.38-2.16-1.65-4.22-2.65-6.13-3.23-7.49-2.27-12.63,2.16-12.69,2.21-.81,.72-.89,1.97-.17,2.78,.72,.83,1.97,.91,2.78,.19,.25-.19,5.47-4.56,13.13,.7,.25,.15,.47,.32,.72,.51,.34,.27,.76,.42,1.19,.42,.09,0,.21-.02,.3-.04h.02c.49-.08,.95-.34,1.25-.76,.13-.17,.23-.36,.3-.55v-.06c.04-.15,.08-.25,.08-.4,.02-.13,.02-.28,0-.42v-.04c-.02-.17-.08-.32-.13-.47Z"/></g><g><ellipse class="cls-26" cx="686.24" cy="448.56" rx="11.04" ry="41.61"/><ellipse class="cls-26" cx="822.15" cy="448.56" rx="11.04" ry="41.61"/></g><g><path class="cls-37" d="M797.93,602.26c-11.62,2.71-26.57,5.13-44.03,5.33-17.13,.2-31.62-3.07-43.16-5.44,3.39-23.86,6.52-46.44,9.9-70.31h67.28l10,70.41Z"/><path class="cls-19" d="M712.25,591.52l3.44-11.93c1.13-3.93,5.32-6.09,9.17-4.73,6.93,2.44,16.26,4.77,27.39,5,12.92,.27,23.66-2.36,31.27-5.06,3.8-1.35,7.95,.7,9.16,4.55s2.43,7.72,3.65,11.59l-4.86-34.24h-74.32l-4.89,34.82Z"/><path class="cls-37" d="M704.87,592.67l52.06-8.12,46.89,7.82s-7.82,26.57-51.58,26.57c-37.51,0-47.37-26.27-47.37-26.27Z"/><path class="cls-18" d="M712.25,591.52c4.39,4.57,10.35,9.92,18.11,14.92,10.65,6.85,28.14,12.5,28.14,12.5l-7.82,17.19s-45.33-9.38-45.81-43.46l7.37-1.15Z"/><path class="cls-18" d="M796.32,590.95c-3.71,4.83-9.38,11.14-17.51,17.05-7.59,5.53-14.83,8.88-20.32,10.94,2.08,5.73,4.17,11.46,6.25,17.19,0,0,37.51-12.5,39.08-43.77l-7.5-1.42Z"/><path class="cls-18" d="M704.87,592.67c.69-1.34,1.82-3.17,3.61-4.99,1.75-1.79,3.52-2.95,4.83-3.68-.35,2.51-.7,5.01-1.06,7.52l-7.37,1.15Z"/><path class="cls-18" d="M803.83,592.37c-.75-.94-1.77-2.05-3.13-3.13-1.86-1.48-3.67-2.37-5.03-2.91,.22,1.54,.44,3.08,.66,4.62l7.5,1.42Z"/><path class="cls-3" d="M764.75,636.92c-.32,0-.62-.2-.73-.51l-5.6-15.4-7.02,15.45c-.18,.39-.64,.57-1.03,.39-.39-.18-.57-.64-.39-1.03l7.51-16.53c.18-.4,.59-.66,1.03-.63,.44,.02,.82,.3,.97,.71l6,16.51c.15,.41-.06,.85-.47,1-.09,.03-.18,.05-.27,.05Z"/></g><path class="cls-32" d="M817.56,387.1c-3.61-1.86-6.95-4.19-10.02-6.84-6.43-5.55-23.04-12.97-45.92-12.97-34.42,0-53.36,7.99-60.6,15.27-3.86,3.88-7.96,7.54-12.64,10.38-9.17,5.58-17.42,19.67-12.73,49.37l77.26-33.24,79.44,28.55c4.3-32.82-5.47-45.74-14.79-50.53Z"/><path class="cls-37" d="M829.98,464.49c0,87.16-33.87,111.8-75.64,111.8s-75.64-19.69-75.64-111.8c0-41.78,33.87-75.64,75.64-75.64s75.64,33.87,75.64,75.64Z"/><path class="cls-32" d="M690.32,424.21c13.58,5.54,35.59,12.62,63.49,13.42,29.07,.84,52.25-5.49,66.3-10.5-.84-5.33-2.8-13.6-8.67-21.38-8.02-10.64-23.42-21.26-52.94-21.26-59.15,0-68.18,39.73-68.18,39.73Z"/><ellipse cx="733.99" cy="502.51" rx="5.92" ry="9.62"/><ellipse cx="781.68" cy="502.51" rx="5.92" ry="9.62"/><path class="cls-35" d="M733.22,536.86c8.41,2.63,24.69,6.66,40.24,4.43,2.17-.31,3.72,2.03,2.65,3.94-3.08,5.5-10.1,13.44-24.35,11.05-13.03-2.19-19.22-9.73-22.07-15.25-1.19-2.32,1.04-4.94,3.53-4.16Z"/><path class="cls-10" d="M742.96,469.34c-10.31-10.75-30.32-10.62-40.02,.88-.61,.75-.49,1.86,.26,2.47,.45,.36,1.01,.47,1.53,.34,6.3-1.4,11.98-2.63,18.23-2.79,6.23-.23,12.05,.73,18.34,1.99,1.62,.42,2.82-1.71,1.66-2.88h0Z"/><path class="cls-10" d="M766.56,469.34c10.31-10.75,30.32-10.62,40.02,.88,.61,.75,.49,1.86-.26,2.47-.45,.36-1.01,.47-1.53,.34-6.3-1.4-11.98-2.63-18.23-2.79-6.23-.23-12.05,.73-18.34,1.99-1.62,.42-2.82-1.71-1.66-2.88h0Z"/><g><path class="cls-36" d="M757.73,527.16c1.54,0,2.84-.26,3.88-.61,1.47-.49,2.68-1.61,3.3-3.06,.65-1.52,.62-3.26-.08-4.76l-10.57-22.46c-.27-.57-.95-.81-1.52-.55-.57,.27-.81,.95-.55,1.52l10.57,22.46c.43,.91,.45,1.96,.05,2.89-.37,.87-1.06,1.51-1.92,1.79-3.51,1.17-7.83,.26-12.51-2.63-.54-.33-1.24-.17-1.57,.37-.33,.54-.16,1.24,.37,1.57,4.26,2.63,7.79,3.46,10.54,3.46Z"/><path d="M831.54,477.2c-.59-.63-1.58-.66-2.21-.07l-21.6,20.2v-5.67c0-2.64-2.15-4.79-4.79-4.79h-31.06c-2.64,0-4.79,2.15-4.79,4.79v10.84h-18.76v-10.7c0-2.72-2.21-4.93-4.93-4.93h-30.79c-2.72,0-4.93,2.21-4.93,4.93v5.89l-28.72-22.98c-.67-.54-1.66-.43-2.2,.24-.54,.67-.43,1.66,.24,2.2l30.67,24.54v11.52c0,2.72,2.21,4.93,4.93,4.93h30.79c2.72,0,4.93-2.21,4.93-4.93v-7.58h18.76v7.71c0,2.64,2.15,4.79,4.79,4.79h31.06c2.64,0,4.79-2.15,4.79-4.79v-11.72l23.73-22.2c.63-.59,.66-1.58,.07-2.21Zm-86.33,36c0,.99-.81,1.8-1.8,1.8h-30.79c-.99,0-1.8-.81-1.8-1.8v-21.41c0-.99,.81-1.8,1.8-1.8h30.79c.99,0,1.8,.81,1.8,1.8v21.41Zm59.4,.14c0,.92-.75,1.67-1.67,1.67h-31.06c-.92,0-1.67-.75-1.67-1.67v-21.68c0-.92,.75-1.67,1.67-1.67h31.06c.92,0,1.67,.75,1.67,1.67v21.68Z"/></g></g><g><path class="cls-4" d="M909.8,983.48h-304.84l-32.15-179.1c-2.15-11.96,7.04-22.94,19.19-22.94h330.75c12.15,0,21.34,10.99,19.19,22.94l-32.15,179.1Z"/><rect class="cls-20" x="596.1" y="967.53" width="320.79" height="15.95" rx="5.43" ry="5.43"/><circle class="cls-17" cx="757.39" cy="893.09" r="17.72"/></g></g></g></svg>