<?xml version="1.0" encoding="utf-8"?>
<!-- Generator: Adobe Illustrator 25.4.1, SVG Export Plug-In . SVG Version: 6.00 Build 0)  -->
<svg version="1.1" id="Layer_1" xmlns="http://www.w3.org/2000/svg" xmlns:xlink="http://www.w3.org/1999/xlink" x="0px" y="0px"
	 viewBox="0 0 248 248" style="enable-background:new 0 0 248 248;" xml:space="preserve">
<style type="text/css">
	.st0{fill:#0F213F;}
	.st1{fill:#122349;}
	.st2{fill:#00BCD4;}
</style>
<g>
	<g>
		<path class="st0" d="M105.9,84h-67c-13.5,0-24.5-11-24.5-24.5v-5.6c0-1,0.8-1.9,1.9-1.9h112.2c1,0,1.9,0.8,1.9,1.9v5.6
			C130.4,73,119.4,84,105.9,84z"/>
		<path class="st0" d="M231.6,192.6l-0.4,0.2c-14.8,7.4-32.8,1.5-40.2-13.3l-51.3-102c-4.2-8.4-0.8-18.6,7.5-22.8l0,0
			c8.4-4.2,18.6-0.8,22.8,7.5l63.1,125.5C234.1,189.5,233.4,191.7,231.6,192.6z"/>
		<path class="st0" d="M86.5,196H57.2c-0.8,0-1.4-0.6-1.4-1.5v-88.3c0-9.2,7.2-16.7,16-16.7l0,0c8.8,0,16,7.5,16,16.7v88.3
			C87.9,195.4,87.3,196,86.5,196z"/>
		<path class="st0" d="M98.9,156.7L98.9,156.7C98.8,156.6,98.8,156.6,98.9,156.7c-1.2-0.8-5.3-3.6-7-9.2c-1.9-6.1,0.4-11.2,0.9-12.3
			l0,0l23.5-41.9c4.3-7.6,13.9-10.3,21.5-6l0,0c7.6,4.3,10.3,13.9,6,21.5l-23.4,41.8C116.1,158.2,106.5,160.9,98.9,156.7z"/>
	</g>
	<path class="st1" d="M88.4,148"/>
	<path class="st1" d="M93.1,140.5h-1.8c0,0.7,0.1,3.1,0.1,3.5c0.3,2.7,1.1,4.9,1.8,6.5c0.6-3.3,1.2-6.7,1.8-10H93.1z"/>
	<path class="st2" d="M91.6,140.5L91.6,140.5h62.2c8.6,0,15.5,7,15.5,15.5l0,0c0,8.6-7,15.5-15.5,15.5h-31.2
		C105.5,171.6,91.6,157.7,91.6,140.5z"/>
</g>
</svg>
